PathFileType	4	(X/Y/Z)	Run_200 01
DataRate	CameraRate	NumFrames	NumMarkers	Units	OrigDataRate	OrigDataStartFrame	OrigNumFrames
120	120	6	42	mm	120	2	128
Frame#	Time	LASI			RASI			LPSI			RPSI			RTH1			RTH2			RTH3			LTH1			LTH2			LTH3			RTB2			RTB3			LTB1			LTB2			LTB3			RCAL			RTOE			RMT5			LCAL			LTOE			LMT5			LACR			RACR			CLAV			C7			RUA1			RUA2			RUA3			RLEL			RMEL			LUA1			LUA2			LUA3			LLEL			LMEL			RFAsuperior			RFAradius			RFAulna			LFAsuperior			LFAradius			LFAulna			RTB1			
		X1	Y1	Z1	X2	Y2	Z2	X3	Y3	Z3	X4	Y4	Z4	X5	Y5	Z5	X6	Y6	Z6	X7	Y7	Z7	X8	Y8	Z8	X9	Y9	Z9	X10	Y10	Z10	X11	Y11	Z11	X12	Y12	Z12	X13	Y13	Z13	X14	Y14	Z14	X15	Y15	Z15	X16	Y16	Z16	X17	Y17	Z17	X18	Y18	Z18	X19	Y19	Z19	X20	Y20	Z20	X21	Y21	Z21	X22	Y22	Z22	X23	Y23	Z23	X24	Y24	Z24	X25	Y25	Z25	X26	Y26	Z26	X27	Y27	Z27	X28	Y28	Z28	X29	Y29	Z29	X30	Y30	Z30	X31	Y31	Z31	X32	Y32	Z32	X33	Y33	Z33	X34	Y34	Z34	X35	Y35	Z35	X36	Y36	Z36	X37	Y37	Z37	X38	Y38	Z38	X39	Y39	Z39	X40	Y40	Z40	X41	Y41	Z41	X42	Y42	Z42	

1	0.233333	504.248469	1036.526106	-447.791831	512.979152	1056.859612	-198.144134	339.707037	1069.229051	-363.673955	344.462873	1069.031807	-276.170477	512.160119	858.300984	-163.499689	595.004157	757.527374	-208.305847	551.152205	618.277217	-203.257761	443.010341	884.792868	-493.246189	478.275952	764.119376	-484.48221	385.242053	638.762867	-472.003169	596.574963	354.289617	-216.998644	617.220962	244.746657	-290.502718	322.966209	402.574733	-407.567256	215.147829	359.491329	-453.321078	174.317037	284.112968	-384.084313	512.521715	99.570363	-302.059141	731.418891	110.709978	-313.658484	705.1673520000001	80.932091	-222.347284	20.759173	292.228771	-377.800594	136.066633	108.400459	-367.083848	81.665886	104.791769	-444.406028	525.395363	1471.104386	-517.687264	449.816294	1484.467818	-149.663379	569.45658	1451.63109	-284.828208	454.226736	1539.635582	-344.180287	395.690313	1403.826056	-77.452483	400.598439	1332.916919	-63.873395	294.711105	1343.411205	-51.136333	298.594066	1263.402831	-0.07102	255.220172	1238.724297	-76.445854	498.31163	1406.066859	-578.435072	421.421646	1359.475834	-586.598441	477.181761	1318.717732	-622.198278	442.543282	1218.263115	-667.955646	373.488853	1187.887763	-613.091886	376.939472	1237.946309	-8.597633999999999	523.1403780000001	1193.213221	-77.57159900000001	490.954139	1134.80881	-65.628507	506.665709	1217.864878	-633.55598	599.649578	1219.024124	-483.713909	607.7470039999999	1157.403256	-506.396772	631.645365	422.154015	-270.589547	
2	0.241667	504.13957	1032.528129	-447.582406	512.5015090000001	1051.106007	-197.820128	339.556174	1064.075587	-363.820517	344.253912	1062.867565	-276.606348	510.863385	852.769843	-162.786317	594.134946	752.418233	-207.115662	548.2794709999999	612.409103	-203.818225	446.569649	879.907194	-493.262124	484.395665	759.599746	-483.42349	394.824431	632.342475	-473.778183	592.9594949999999	347.906647	-218.84979	613.9191960000001	238.587947	-292.638811	329.501291	399.237591	-408.127737	220.031368	360.121308	-454.153241	175.397467	288.498095	-384.033577	506.901911	97.71215100000001	-306.297317	725.889859	100.077294	-317.370239	698.457677	74.62298199999999	-225.40652	21.924249	302.93519	-378.79953	131.058826	115.494433	-366.773972	76.747328	113.786321	-445.510215	524.05957	1466.840112	-516.627991	450.458171	1478.996984	-148.114687	569.086069	1446.479912	-284.117867	453.676389	1535.142315	-342.481781	396.929301	1397.870344	-75.578794	402.28281	1327.204009	-62.058591	296.602991	1336.877058	-49.156981	300.949624	1257.406238	2.481045	257.833462	1231.527851	-73.720749	496.010031	1402.384819	-577.438357	418.454297	1356.511929	-584.807128	473.421548	1315.622598	-621.347353	437.354257	1215.536727	-667.1650990000001	368.482095	1185.890701	-612.006992	379.560969	1232.892023	-5.742766	526.605961	1189.365613	-73.817644	494.841403	1130.791837	-61.777409	501.670284	1213.75097	-633.008041	595.904745	1213.305167	-484.01861	602.399003	1151.682051	-506.933056	628.093209	415.968738	-271.958877	
3	0.25	504.060109	1027.781368	-447.591921	511.855451	1044.795448	-197.706893	339.481722	1057.837339	-364.373065	343.874684	1056.146377	-277.262441	509.737619	846.618605	-162.842153	593.590405	746.636907	-205.766911	545.240806	605.838843	-204.654027	450.090602	874.483018	-493.238896	490.914637	754.736092	-482.656517	404.917147	625.600642	-475.663078	588.204569	340.780896	-221.138841	608.5265419999999	231.445929	-295.346409	336.755798	395.675093	-408.995802	225.677973	360.870997	-455.141934	177.524163	292.944611	-384.198279	497.287422	97.056667	-310.069476	716.452466	88.94928299999999	-320.815149	687.877536	69.10028699999999	-227.787256	23.677551	313.186867	-379.626716	128.251758	123.393734	-366.860194	74.140805	123.041878	-446.830638	522.647169	1461.865566	-515.724601	451.031686	1472.715132	-146.521918	568.665601	1440.621448	-283.489659	453.110991	1529.965643	-340.679994	398.299176	1391.017926	-73.59843100000001	404.206268	1320.59418	-60.200173	298.634865	1329.325715	-46.798158	303.686046	1250.371674	5.284819	260.784652	1223.3173	-70.67163499999999	493.412739	1397.812819	-576.319182	415.190916	1352.788537	-582.961081	469.337741	1311.669894	-620.345294	431.761246	1212.106702	-666.25552	363.238008	1183.149372	-610.691635	382.571697	1226.834672	-2.719107	530.323788	1184.728768	-70.185424	499.104322	1125.942864	-58.026355	496.290794	1208.833718	-632.3921790000001	592.070786	1206.736984	-484.578377	596.869447	1145.117227	-507.510843	624.401693	408.84677	-273.417833	
4	0.258333	504.110631	1022.411591	-447.732467	510.754481	1038.16118	-197.423136	339.327375	1050.621661	-365.226976	343.058371	1049.115843	-277.834811	508.561983	840.0903520000001	-163.386768	592.908995	740.1420859999999	-204.179338	542.370904	599.056181	-205.888736	453.567257	868.398893	-493.001045	497.911371	749.582662	-482.266102	415.582138	618.623025	-477.570232	582.763612	333.631018	-224.093587	600.507381	224.114226	-299.004569	344.815485	391.920036	-410.267016	232.10771	361.915939	-456.226028	180.867435	297.211612	-384.820485	483.990226	96.93920799999999	-312.842473	703.368114	80.258464	-323.565538	674.004934	65.48937599999999	-229.325627	26.622542	323.083908	-380.320665	127.436703	131.471101	-367.782974	73.553577	132.203011	-448.384998	521.070695	1456.233827	-514.963017	451.543916	1465.699741	-144.865898	568.303148	1434.075754	-282.917146	452.440352	1524.047372	-338.807796	399.803655	1383.323133	-71.514048	406.391046	1313.150458	-58.266321	300.827856	1320.798184	-44.11266	306.798486	1242.341956	8.339672	264.083606	1214.137404	-67.32620900000001	490.497619	1392.431273	-575.075238	411.631357	1348.359533	-581.0261410000001	464.96788	1306.890995	-619.2076520000001	425.793038	1208.027297	-665.247784	357.735216	1179.683286	-609.130305	385.981808	1219.838655	0.433012	534.246588	1179.30983	-66.743815	503.764566	1120.258811	-54.395418	490.63298	1203.295407	-631.9120349999999	588.168241	1199.367844	-485.41434	591.306976	1137.817925	-508.293787	620.755475	401.438483	-275.558915	
5	0.266667	504.344307	1016.45675	-447.870053	508.809057	1031.175304	-196.705143	338.738807	1042.508491	-366.202555	341.425841	1041.756262	-278.082014	506.965744	833.6757239999999	-163.994819	591.89929	733.555957	-202.497045	540.342833	592.900767	-207.352155	457.176054	861.5273529999999	-492.472384	505.353502	744.138509	-482.104525	426.844372	611.442526	-479.315174	577.237407	327.544972	-227.447445	590.126854	217.815749	-303.232735	353.757081	388.07964	-411.77641	239.487611	363.278487	-457.270881	185.632619	301.14369	-385.912628	468.141113	96.847476	-314.374929	687.742437	75.58045	-325.509219	658.007369	63.996578	-230.19855	31.428745	332.688294	-380.980563	128.361716	139.176678	-369.6859	74.67679800000001	141.105747	-450.283735	519.183619	1450.039347	-514.297791	452.07177	1458.12118	-143.067319	568.208517	1426.850883	-282.380539	451.565729	1517.410705	-336.941731	401.513023	1374.775002	-69.350979	408.835743	1304.908689	-56.225227	303.256142	1311.349327	-41.185689	310.294255	1233.378662	11.642126	267.785496	1204.080677	-63.755538	487.2305	1386.34754	-573.743754	407.757984	1343.254087	-578.977481	460.323068	1301.338603	-617.9668809999999	419.479128	1203.37399	-664.1576690000001	351.945965	1175.559467	-607.308629	389.812191	1211.964055	3.703301	538.405273	1173.115435	-63.582045	508.84624	1113.728473	-50.924558	484.755995	1197.339152	-631.73803	584.223523	1191.257995	-486.566995	585.785046	1129.867606	-509.530104	617.221495	394.665747	-278.662543	
6	0.275	504.712657	1009.960245	-447.874917	505.7825	1023.608265	-195.756297	337.359497	1033.518436	-367.139728	338.717845	1033.821141	-278.086921	504.681662	827.936787	-164.372798	590.678766	727.9346379999999	-201.199078	539.7572280000001	588.117178	-208.569229	461.16938	853.971319	-491.725363	513.062985	738.492843	-481.921961	438.642228	604.1420429999999	-480.669328	572.107758	323.419682	-230.539503	578.564072	213.592209	-307.045822	363.588764	384.380352	-413.109717	248.067165	364.820963	-458.157257	191.961635	304.725121	-387.279224	451.27941	96.700277	-314.898964	671.102613	74.25018	-326.752427	641.238276	63.921409	-230.723838	38.446877	341.935876	-381.74955	130.91491	146.252499	-372.3503	77.450281	149.736986	-452.685914	516.876877	1443.436905	-513.692319	452.746939	1450.227493	-141.01286	568.585589	1419.012031	-281.919283	450.499364	1510.267638	-335.181329	403.54719	1365.323611	-67.182104	411.505637	1295.883479	-54.119171	305.995684	1301.074793	-38.102656	314.196334	1223.577123	15.151749	271.992854	1193.295127	-60.059318	483.598892	1379.688138	-572.4014969999999	403.540584	1337.516001	-576.797594	455.384001	1295.131064	-616.665246	412.841955	1198.272376	-662.9799400000001	345.909945	1170.919733	-605.219697	394.095067	1203.225023	7.11729	542.9144669999999	1166.178962	-60.7558	514.373696	1106.355054	-47.67934	478.624683	1191.09114	-631.853016	580.254644	1182.483863	-488.073964	580.284948	1121.294275	-511.388905	613.745733	389.289823	-282.370415	
